<svg width="656" height="114" viewBox="0 0 656 114" fill="none" xmlns="http://www.w3.org/2000/svg">
<line opacity="0.5" x1="358.375" y1="27.2191" x2="388.375" y2="3.21913" stroke="black" stroke-width="2"/>
<line opacity="0.5" x1="250.375" y1="106.219" x2="280.375" y2="82.2191" stroke="black" stroke-width="2"/>
<line opacity="0.5" y1="-1" x2="38.4187" y2="-1" transform="matrix(-0.780869 -0.624695 -0.624695 0.780869 389 109)" stroke="black" stroke-width="2"/>
<line opacity="0.5" y1="-1" x2="38.4187" y2="-1" transform="matrix(-0.780869 -0.624695 -0.624695 0.780869 281 29)" stroke="black" stroke-width="2"/>
<line opacity="0.5" x1="387.004" y1="4.00001" x2="656.004" y2="4.98535" stroke="black" stroke-width="2"/>
<line opacity="0.5" x1="389" y1="108" x2="656" y2="108" stroke="black" stroke-width="2"/>
<line opacity="0.5" y1="106" x2="251" y2="106" stroke="black" stroke-width="2"/>
<line opacity="0.5" y1="5" x2="253" y2="5" stroke="black" stroke-width="2"/>
<rect x="270" y="17" width="102" height="78" rx="16" fill="#D9D9D9"/>
<path d="M303.173 58.56V55.28L310.133 49.32V52.34C309.267 53.18 308.473 53.9267 307.753 54.58C307.447 54.86 307.14 55.14 306.833 55.42C306.54 55.6867 306.273 55.9333 306.033 56.16C305.793 56.3733 305.587 56.5533 305.413 56.7C305.253 56.8467 305.153 56.9267 305.113 56.94C305.153 56.94 305.253 57.0133 305.413 57.16C305.587 57.2933 305.793 57.4733 306.033 57.7C306.273 57.9133 306.54 58.16 306.833 58.44C307.14 58.72 307.447 59.0067 307.753 59.3C308.473 59.9933 309.267 60.78 310.133 61.66V64.58L303.173 58.56ZM324.23 48.44L320.09 63.02H317.29L321.53 48.44H324.23ZM330.947 64.58V61.66C331.813 60.78 332.607 59.9933 333.327 59.3C333.633 59.0067 333.933 58.72 334.227 58.44C334.52 58.16 334.787 57.9133 335.027 57.7C335.28 57.4733 335.487 57.2933 335.647 57.16C335.82 57.0133 335.927 56.94 335.967 56.94C335.927 56.9267 335.82 56.8467 335.647 56.7C335.487 56.5533 335.28 56.3733 335.027 56.16C334.787 55.9333 334.52 55.6867 334.227 55.42C333.933 55.14 333.633 54.86 333.327 54.58C332.607 53.9267 331.813 53.18 330.947 52.34V49.32L337.907 55.28V58.56L330.947 64.58Z" fill="black"/>
<ellipse opacity="0.75" cx="173" cy="106.5" rx="3" ry="2.5" fill="black"/>
<ellipse opacity="0.75" cx="192" cy="5.5" rx="3" ry="2.5" fill="black"/>
<ellipse opacity="0.75" cx="556" cy="4.5" rx="3" ry="2.5" fill="black"/>
<ellipse opacity="0.75" cx="423" cy="108.5" rx="3" ry="2.5" fill="black"/>
<rect x="402" width="29" height="10" rx="5" fill="#D9D9D9"/>
<rect x="37" y="101" width="29" height="10" rx="5" fill="#D9D9D9"/>
<rect x="120" y="101" width="25" height="10" rx="5" fill="#D9D9D9"/>
<rect x="471" y="104" width="35" height="10" rx="5" fill="#D9D9D9"/>
<path d="M411.133 6.163V6.01H412.051V6.226C412.051 6.406 412.012 6.571 411.934 6.721C411.862 6.871 411.769 7 411.655 7.108C411.541 7.216 411.412 7.3 411.268 7.36C411.13 7.42 410.995 7.45 410.863 7.45H409.927C409.789 7.45 409.642 7.429 409.486 7.387C409.33 7.345 409.186 7.276 409.054 7.18C408.922 7.09 408.811 6.967 408.721 6.811C408.631 6.655 408.586 6.46 408.586 6.226V4.444C408.586 4.258 408.634 4.096 408.73 3.958C408.826 3.814 408.946 3.697 409.09 3.607C409.234 3.511 409.393 3.442 409.567 3.4C409.747 3.352 409.918 3.328 410.08 3.328H410.629C410.797 3.328 410.956 3.367 411.106 3.445C411.262 3.517 411.4 3.613 411.52 3.733C411.646 3.853 411.748 3.988 411.826 4.138C411.91 4.282 411.964 4.426 411.988 4.57L411.043 4.696C411.013 4.57 410.938 4.468 410.818 4.39C410.704 4.306 410.581 4.264 410.449 4.264H410.134C410.062 4.264 409.987 4.279 409.909 4.309C409.837 4.333 409.771 4.369 409.711 4.417C409.651 4.465 409.6 4.519 409.558 4.579C409.522 4.639 409.504 4.705 409.504 4.777V6.073C409.504 6.121 409.519 6.178 409.549 6.244C409.579 6.304 409.621 6.364 409.675 6.424C409.735 6.478 409.804 6.526 409.882 6.568C409.96 6.604 410.044 6.622 410.134 6.622H410.512C410.698 6.622 410.848 6.577 410.962 6.487C411.076 6.397 411.133 6.289 411.133 6.163ZM414.034 7.45C413.842 7.45 413.656 7.423 413.476 7.369C413.302 7.315 413.149 7.231 413.017 7.117C412.885 7.009 412.78 6.871 412.702 6.703C412.624 6.529 412.585 6.325 412.585 6.091V4.489C412.585 4.303 412.627 4.129 412.711 3.967C412.801 3.805 412.918 3.664 413.062 3.544C413.212 3.424 413.386 3.331 413.584 3.265C413.782 3.199 413.992 3.166 414.214 3.166H414.772C415.024 3.166 415.252 3.202 415.456 3.274C415.666 3.346 415.846 3.442 415.996 3.562C416.146 3.682 416.26 3.826 416.338 3.994C416.422 4.162 416.464 4.339 416.464 4.525V6.181C416.464 6.367 416.431 6.538 416.365 6.694C416.299 6.85 416.203 6.982 416.077 7.09C415.951 7.204 415.801 7.291 415.627 7.351C415.453 7.417 415.258 7.45 415.042 7.45H414.034ZM414.727 6.631C414.829 6.631 414.916 6.613 414.988 6.577C415.066 6.535 415.129 6.487 415.177 6.433C415.231 6.373 415.27 6.31 415.294 6.244C415.318 6.172 415.33 6.103 415.33 6.037V4.759C415.33 4.615 415.27 4.477 415.15 4.345C415.036 4.207 414.874 4.138 414.664 4.138H414.412C414.328 4.138 414.244 4.15 414.16 4.174C414.082 4.198 414.007 4.237 413.935 4.291C413.869 4.339 413.815 4.402 413.773 4.48C413.731 4.558 413.71 4.654 413.71 4.768V5.992C413.71 6.04 413.716 6.103 413.728 6.181C413.746 6.253 413.776 6.322 413.818 6.388C413.866 6.454 413.929 6.511 414.007 6.559C414.091 6.607 414.196 6.631 414.322 6.631H414.727ZM418.887 3.157C419.055 3.157 419.187 3.169 419.283 3.193C419.385 3.217 419.499 3.262 419.625 3.328V0.898H420.804V7.45H419.625V7.135C419.523 7.231 419.406 7.306 419.274 7.36C419.148 7.42 419.013 7.45 418.869 7.45H418.428C418.2 7.45 417.999 7.417 417.825 7.351C417.651 7.291 417.504 7.204 417.384 7.09C417.264 6.976 417.171 6.847 417.105 6.703C417.045 6.553 417.015 6.391 417.015 6.217V4.273C417.015 4.105 417.048 3.955 417.114 3.823C417.18 3.685 417.267 3.568 417.375 3.472C417.483 3.37 417.606 3.292 417.744 3.238C417.888 3.184 418.035 3.157 418.185 3.157H418.887ZM418.923 6.469C419.073 6.469 419.217 6.418 419.355 6.316C419.493 6.208 419.562 6.058 419.562 5.866V4.516C419.562 4.372 419.508 4.24 419.4 4.12C419.298 3.994 419.133 3.931 418.905 3.931H418.59C418.404 3.931 418.248 3.988 418.122 4.102C418.002 4.216 417.942 4.381 417.942 4.597V5.785C417.942 5.971 417.978 6.133 418.05 6.271C418.122 6.403 418.272 6.469 418.5 6.469H418.932H418.923ZM423.631 3.166C423.841 3.166 424.042 3.199 424.234 3.265C424.426 3.331 424.594 3.424 424.738 3.544C424.888 3.664 425.005 3.814 425.089 3.994C425.179 4.168 425.224 4.363 425.224 4.579V5.596H422.551V6.01C422.551 6.064 422.56 6.13 422.578 6.208C422.602 6.286 422.641 6.361 422.695 6.433C422.749 6.499 422.824 6.556 422.92 6.604C423.016 6.652 423.139 6.676 423.289 6.676H423.64C424.072 6.676 424.288 6.478 424.288 6.082H425.305V6.352C425.305 6.568 425.263 6.748 425.179 6.892C425.095 7.03 424.984 7.141 424.846 7.225C424.708 7.309 424.549 7.366 424.369 7.396C424.189 7.432 424.003 7.45 423.811 7.45H422.947C422.797 7.45 422.641 7.429 422.479 7.387C422.323 7.345 422.173 7.273 422.029 7.171C421.891 7.075 421.771 6.946 421.669 6.784C421.567 6.616 421.498 6.412 421.462 6.172V4.579C421.462 4.381 421.507 4.198 421.597 4.03C421.687 3.856 421.807 3.706 421.957 3.58C422.107 3.448 422.281 3.346 422.479 3.274C422.683 3.202 422.896 3.166 423.118 3.166H423.631ZM422.551 4.921H424.198V4.651C424.198 4.573 424.177 4.498 424.135 4.426C424.099 4.348 424.048 4.282 423.982 4.228C423.916 4.168 423.841 4.123 423.757 4.093C423.673 4.057 423.589 4.039 423.505 4.039H423.217C423.133 4.039 423.049 4.057 422.965 4.093C422.887 4.123 422.815 4.168 422.749 4.228C422.689 4.282 422.641 4.348 422.605 4.426C422.569 4.498 422.551 4.573 422.551 4.651V4.921Z" fill="black"/>
<path d="M128.646 104.157H129.258C129.408 104.157 129.552 104.184 129.69 104.238C129.834 104.292 129.96 104.37 130.068 104.472C130.176 104.568 130.263 104.685 130.329 104.823C130.395 104.955 130.428 105.105 130.428 105.273V107.217C130.428 107.391 130.389 107.553 130.311 107.703C130.233 107.847 130.131 107.976 130.005 108.09C129.879 108.204 129.738 108.291 129.582 108.351C129.426 108.417 129.267 108.45 129.105 108.45H128.628C128.478 108.45 128.346 108.426 128.232 108.378C128.118 108.336 128.01 108.276 127.908 108.198V108.45H126.729V101.898H127.908V104.418C127.992 104.34 128.091 104.277 128.205 104.229C128.325 104.181 128.472 104.157 128.646 104.157ZM128.61 107.379H129.024C129.252 107.379 129.417 107.325 129.519 107.217C129.621 107.103 129.672 106.953 129.672 106.767V105.507C129.672 105.291 129.609 105.126 129.483 105.012C129.363 104.898 129.21 104.841 129.024 104.841H128.628C128.4 104.841 128.232 104.904 128.124 105.03C128.022 105.15 127.971 105.282 127.971 105.426V106.839C127.971 106.911 127.989 106.98 128.025 107.046C128.067 107.112 128.118 107.169 128.178 107.217C128.238 107.265 128.307 107.304 128.385 107.334C128.463 107.364 128.538 107.379 128.61 107.379ZM133.716 104.166H135.129V108.45H133.842V108.072C133.692 108.228 133.536 108.33 133.374 108.378C133.212 108.426 133.065 108.45 132.933 108.45H132.564C132.366 108.45 132.174 108.423 131.988 108.369C131.808 108.321 131.649 108.234 131.511 108.108C131.379 107.988 131.271 107.826 131.187 107.622C131.109 107.412 131.07 107.148 131.07 106.83V104.166H132.168V106.56C132.168 106.866 132.207 107.088 132.285 107.226C132.369 107.364 132.522 107.433 132.744 107.433H133.104C133.29 107.433 133.437 107.367 133.545 107.235C133.659 107.097 133.716 106.896 133.716 106.632V104.166ZM139.326 104.157V108.855C139.326 109.089 139.278 109.284 139.182 109.44C139.092 109.596 138.978 109.722 138.84 109.818C138.708 109.92 138.561 109.992 138.399 110.034C138.243 110.076 138.102 110.097 137.976 110.097H137.049C136.923 110.097 136.791 110.073 136.653 110.025C136.515 109.977 136.389 109.902 136.275 109.8C136.167 109.698 136.074 109.569 135.996 109.413C135.924 109.257 135.888 109.074 135.888 108.864H136.923C136.929 108.924 136.938 108.984 136.95 109.044C136.962 109.104 136.983 109.158 137.013 109.206C137.049 109.254 137.094 109.293 137.148 109.323C137.202 109.353 137.271 109.368 137.355 109.368H137.742C137.88 109.368 137.991 109.323 138.075 109.233C138.165 109.149 138.21 109.056 138.21 108.954V108.171C138.156 108.231 138.069 108.276 137.949 108.306C137.829 108.342 137.73 108.36 137.652 108.36H136.968C136.794 108.36 136.632 108.333 136.482 108.279C136.338 108.225 136.209 108.147 136.095 108.045C135.981 107.949 135.891 107.832 135.825 107.694C135.765 107.556 135.735 107.403 135.735 107.235V105.723C135.735 105.549 135.768 105.387 135.834 105.237C135.906 105.081 135.999 104.949 136.113 104.841C136.233 104.727 136.371 104.637 136.527 104.571C136.683 104.505 136.851 104.472 137.031 104.472H137.589C137.793 104.472 138 104.526 138.21 104.634V104.157H139.326ZM137.616 107.676C137.754 107.676 137.877 107.634 137.985 107.55C138.093 107.466 138.147 107.31 138.147 107.082V105.795C138.147 105.603 138.078 105.465 137.94 105.381C137.808 105.291 137.67 105.246 137.526 105.246H137.337C137.157 105.246 137.013 105.3 136.905 105.408C136.797 105.51 136.743 105.657 136.743 105.849V107.127C136.743 107.253 136.782 107.376 136.86 107.496C136.938 107.616 137.067 107.676 137.247 107.676H137.616Z" fill="black"/>
<path d="M42.5874 103.356V102.294H43.6764V103.356H42.5874ZM42.5874 108.45V104.175H43.6764V108.45H42.5874ZM44.6204 108.054V107.217C44.9084 107.337 45.1964 107.451 45.4844 107.559C45.7784 107.667 46.0604 107.709 46.3304 107.685C46.4144 107.685 46.4954 107.682 46.5734 107.676C46.6514 107.664 46.7204 107.646 46.7804 107.622C46.8464 107.598 46.9034 107.562 46.9514 107.514C46.9994 107.46 47.0324 107.391 47.0504 107.307C47.0744 107.205 47.0624 107.115 47.0144 107.037C46.9724 106.953 46.9124 106.881 46.8344 106.821C46.7564 106.761 46.6694 106.713 46.5734 106.677C46.4774 106.641 46.3934 106.614 46.3214 106.596C46.0814 106.536 45.8564 106.479 45.6464 106.425C45.4424 106.365 45.2654 106.29 45.1154 106.2C44.9654 106.11 44.8454 105.996 44.7554 105.858C44.6714 105.72 44.6294 105.543 44.6294 105.327C44.6294 105.039 44.7074 104.802 44.8634 104.616C45.0254 104.43 45.2264 104.289 45.4664 104.193C45.7064 104.091 45.9614 104.034 46.2314 104.022C46.5074 104.004 46.7624 104.022 46.9964 104.076C47.1704 104.118 47.3384 104.169 47.5004 104.229C47.6624 104.289 47.8124 104.37 47.9504 104.472V105.381C47.8484 105.297 47.7494 105.225 47.6534 105.165C47.5574 105.099 47.4404 105.036 47.3024 104.976C47.2124 104.934 47.1134 104.901 47.0054 104.877C46.8974 104.847 46.7894 104.832 46.6814 104.832C46.5734 104.826 46.4654 104.835 46.3574 104.859C46.2554 104.883 46.1624 104.928 46.0784 104.994C46.0124 105.048 45.9704 105.108 45.9524 105.174C45.9344 105.234 45.9344 105.294 45.9524 105.354C45.9764 105.414 46.0124 105.471 46.0604 105.525C46.1084 105.573 46.1654 105.606 46.2314 105.624C46.4774 105.702 46.6934 105.774 46.8794 105.84C47.0714 105.9 47.2724 105.972 47.4824 106.056C47.6504 106.128 47.7854 106.209 47.8874 106.299C47.9894 106.389 48.0674 106.488 48.1214 106.596C48.1754 106.698 48.2114 106.806 48.2294 106.92C48.2474 107.034 48.2564 107.148 48.2564 107.262C48.2564 107.496 48.1964 107.697 48.0764 107.865C47.9624 108.033 47.8124 108.171 47.6264 108.279C47.4464 108.387 47.2424 108.465 47.0144 108.513C46.7924 108.561 46.5734 108.585 46.3574 108.585C46.0334 108.585 45.7304 108.54 45.4484 108.45C45.1724 108.36 44.8964 108.228 44.6204 108.054ZM48.8567 108.054V107.217C49.1447 107.337 49.4327 107.451 49.7207 107.559C50.0147 107.667 50.2967 107.709 50.5667 107.685C50.6507 107.685 50.7317 107.682 50.8097 107.676C50.8877 107.664 50.9567 107.646 51.0167 107.622C51.0827 107.598 51.1397 107.562 51.1877 107.514C51.2357 107.46 51.2687 107.391 51.2867 107.307C51.3107 107.205 51.2987 107.115 51.2507 107.037C51.2087 106.953 51.1487 106.881 51.0707 106.821C50.9927 106.761 50.9057 106.713 50.8097 106.677C50.7137 106.641 50.6297 106.614 50.5577 106.596C50.3177 106.536 50.0927 106.479 49.8827 106.425C49.6787 106.365 49.5017 106.29 49.3517 106.2C49.2017 106.11 49.0817 105.996 48.9917 105.858C48.9077 105.72 48.8657 105.543 48.8657 105.327C48.8657 105.039 48.9437 104.802 49.0997 104.616C49.2617 104.43 49.4627 104.289 49.7027 104.193C49.9427 104.091 50.1977 104.034 50.4677 104.022C50.7437 104.004 50.9987 104.022 51.2327 104.076C51.4067 104.118 51.5747 104.169 51.7367 104.229C51.8987 104.289 52.0487 104.37 52.1867 104.472V105.381C52.0847 105.297 51.9857 105.225 51.8897 105.165C51.7937 105.099 51.6767 105.036 51.5387 104.976C51.4487 104.934 51.3497 104.901 51.2417 104.877C51.1337 104.847 51.0257 104.832 50.9177 104.832C50.8097 104.826 50.7017 104.835 50.5937 104.859C50.4917 104.883 50.3987 104.928 50.3147 104.994C50.2487 105.048 50.2067 105.108 50.1887 105.174C50.1707 105.234 50.1707 105.294 50.1887 105.354C50.2127 105.414 50.2487 105.471 50.2967 105.525C50.3447 105.573 50.4017 105.606 50.4677 105.624C50.7137 105.702 50.9297 105.774 51.1157 105.84C51.3077 105.9 51.5087 105.972 51.7187 106.056C51.8867 106.128 52.0217 106.209 52.1237 106.299C52.2257 106.389 52.3037 106.488 52.3577 106.596C52.4117 106.698 52.4477 106.806 52.4657 106.92C52.4837 107.034 52.4927 107.148 52.4927 107.262C52.4927 107.496 52.4327 107.697 52.3127 107.865C52.1987 108.033 52.0487 108.171 51.8627 108.279C51.6827 108.387 51.4787 108.465 51.2507 108.513C51.0287 108.561 50.8097 108.585 50.5937 108.585C50.2697 108.585 49.9667 108.54 49.6847 108.45C49.4087 108.36 49.1327 108.228 48.8567 108.054ZM55.766 104.166H57.179V108.45H55.892V108.072C55.742 108.228 55.586 108.33 55.424 108.378C55.262 108.426 55.115 108.45 54.983 108.45H54.614C54.416 108.45 54.224 108.423 54.038 108.369C53.858 108.321 53.699 108.234 53.561 108.108C53.429 107.988 53.321 107.826 53.237 107.622C53.159 107.412 53.12 107.148 53.12 106.83V104.166H54.218V106.56C54.218 106.866 54.257 107.088 54.335 107.226C54.419 107.364 54.572 107.433 54.794 107.433H55.154C55.34 107.433 55.487 107.367 55.595 107.235C55.709 107.097 55.766 106.896 55.766 106.632V104.166ZM59.9449 104.166C60.1549 104.166 60.3559 104.199 60.5479 104.265C60.7399 104.331 60.9079 104.424 61.0519 104.544C61.2019 104.664 61.3189 104.814 61.4029 104.994C61.4929 105.168 61.5379 105.363 61.5379 105.579V106.596H58.8649V107.01C58.8649 107.064 58.8739 107.13 58.8919 107.208C58.9159 107.286 58.9549 107.361 59.0089 107.433C59.0629 107.499 59.1379 107.556 59.2339 107.604C59.3299 107.652 59.4529 107.676 59.6029 107.676H59.9539C60.3859 107.676 60.6019 107.478 60.6019 107.082H61.6189V107.352C61.6189 107.568 61.5769 107.748 61.4929 107.892C61.4089 108.03 61.2979 108.141 61.1599 108.225C61.0219 108.309 60.8629 108.366 60.6829 108.396C60.5029 108.432 60.3169 108.45 60.1249 108.45H59.2609C59.1109 108.45 58.9549 108.429 58.7929 108.387C58.6369 108.345 58.4869 108.273 58.3429 108.171C58.2049 108.075 58.0849 107.946 57.9829 107.784C57.8809 107.616 57.8119 107.412 57.7759 107.172V105.579C57.7759 105.381 57.8209 105.198 57.9109 105.03C58.0009 104.856 58.1209 104.706 58.2709 104.58C58.4209 104.448 58.5949 104.346 58.7929 104.274C58.9969 104.202 59.2099 104.166 59.4319 104.166H59.9449ZM58.8649 105.921H60.5119V105.651C60.5119 105.573 60.4909 105.498 60.4489 105.426C60.4129 105.348 60.3619 105.282 60.2959 105.228C60.2299 105.168 60.1549 105.123 60.0709 105.093C59.9869 105.057 59.9029 105.039 59.8189 105.039H59.5309C59.4469 105.039 59.3629 105.057 59.2789 105.093C59.2009 105.123 59.1289 105.168 59.0629 105.228C59.0029 105.282 58.9549 105.348 58.9189 105.426C58.8829 105.498 58.8649 105.573 58.8649 105.651V105.921Z" fill="black"/>
<path d="M477.848 110.163V110.01H478.766V110.226C478.766 110.406 478.727 110.571 478.649 110.721C478.577 110.871 478.484 111 478.37 111.108C478.256 111.216 478.127 111.3 477.983 111.36C477.845 111.42 477.71 111.45 477.578 111.45H476.642C476.504 111.45 476.357 111.429 476.201 111.387C476.045 111.345 475.901 111.276 475.769 111.18C475.637 111.09 475.526 110.967 475.436 110.811C475.346 110.655 475.301 110.46 475.301 110.226V108.444C475.301 108.258 475.349 108.096 475.445 107.958C475.541 107.814 475.661 107.697 475.805 107.607C475.949 107.511 476.108 107.442 476.282 107.4C476.462 107.352 476.633 107.328 476.795 107.328H477.344C477.512 107.328 477.671 107.367 477.821 107.445C477.977 107.517 478.115 107.613 478.235 107.733C478.361 107.853 478.463 107.988 478.541 108.138C478.625 108.282 478.679 108.426 478.703 108.57L477.758 108.696C477.728 108.57 477.653 108.468 477.533 108.39C477.419 108.306 477.296 108.264 477.164 108.264H476.849C476.777 108.264 476.702 108.279 476.624 108.309C476.552 108.333 476.486 108.369 476.426 108.417C476.366 108.465 476.315 108.519 476.273 108.579C476.237 108.639 476.219 108.705 476.219 108.777V110.073C476.219 110.121 476.234 110.178 476.264 110.244C476.294 110.304 476.336 110.364 476.39 110.424C476.45 110.478 476.519 110.526 476.597 110.568C476.675 110.604 476.759 110.622 476.849 110.622H477.227C477.413 110.622 477.563 110.577 477.677 110.487C477.791 110.397 477.848 110.289 477.848 110.163ZM480.749 111.45C480.557 111.45 480.371 111.423 480.191 111.369C480.017 111.315 479.864 111.231 479.732 111.117C479.6 111.009 479.495 110.871 479.417 110.703C479.339 110.529 479.3 110.325 479.3 110.091V108.489C479.3 108.303 479.342 108.129 479.426 107.967C479.516 107.805 479.633 107.664 479.777 107.544C479.927 107.424 480.101 107.331 480.299 107.265C480.497 107.199 480.707 107.166 480.929 107.166H481.487C481.739 107.166 481.967 107.202 482.171 107.274C482.381 107.346 482.561 107.442 482.711 107.562C482.861 107.682 482.975 107.826 483.053 107.994C483.137 108.162 483.179 108.339 483.179 108.525V110.181C483.179 110.367 483.146 110.538 483.08 110.694C483.014 110.85 482.918 110.982 482.792 111.09C482.666 111.204 482.516 111.291 482.342 111.351C482.168 111.417 481.973 111.45 481.757 111.45H480.749ZM481.442 110.631C481.544 110.631 481.631 110.613 481.703 110.577C481.781 110.535 481.844 110.487 481.892 110.433C481.946 110.373 481.985 110.31 482.009 110.244C482.033 110.172 482.045 110.103 482.045 110.037V108.759C482.045 108.615 481.985 108.477 481.865 108.345C481.751 108.207 481.589 108.138 481.379 108.138H481.127C481.043 108.138 480.959 108.15 480.875 108.174C480.797 108.198 480.722 108.237 480.65 108.291C480.584 108.339 480.53 108.402 480.488 108.48C480.446 108.558 480.425 108.654 480.425 108.768V109.992C480.425 110.04 480.431 110.103 480.443 110.181C480.461 110.253 480.491 110.322 480.533 110.388C480.581 110.454 480.644 110.511 480.722 110.559C480.806 110.607 480.911 110.631 481.037 110.631H481.442ZM488.472 111.45V109.038C488.472 108.852 488.439 108.69 488.373 108.552C488.307 108.408 488.184 108.333 488.004 108.327C487.668 108.315 487.5 108.558 487.5 109.056V111.45H486.51V109.038C486.51 108.852 486.459 108.687 486.357 108.543C486.261 108.399 486.111 108.327 485.907 108.327C485.745 108.327 485.616 108.354 485.52 108.408C485.424 108.462 485.349 108.534 485.295 108.624C485.241 108.708 485.205 108.804 485.187 108.912C485.175 109.02 485.169 109.128 485.169 109.236V111.45H483.864V107.076H485.169V107.544C485.199 107.496 485.271 107.451 485.385 107.409C485.499 107.361 485.607 107.337 485.709 107.337H486.159C486.321 107.337 486.474 107.373 486.618 107.445C486.762 107.517 486.882 107.613 486.978 107.733C487.062 107.613 487.182 107.517 487.338 107.445C487.494 107.373 487.635 107.337 487.761 107.337H488.166C488.334 107.337 488.49 107.376 488.634 107.454C488.778 107.526 488.901 107.631 489.003 107.769C489.111 107.901 489.195 108.063 489.255 108.255C489.315 108.441 489.345 108.645 489.345 108.867V111.45H488.472ZM494.747 111.45V109.038C494.747 108.852 494.714 108.69 494.648 108.552C494.582 108.408 494.459 108.333 494.279 108.327C493.943 108.315 493.775 108.558 493.775 109.056V111.45H492.785V109.038C492.785 108.852 492.734 108.687 492.632 108.543C492.536 108.399 492.386 108.327 492.182 108.327C492.02 108.327 491.891 108.354 491.795 108.408C491.699 108.462 491.624 108.534 491.57 108.624C491.516 108.708 491.48 108.804 491.462 108.912C491.45 109.02 491.444 109.128 491.444 109.236V111.45H490.139V107.076H491.444V107.544C491.474 107.496 491.546 107.451 491.66 107.409C491.774 107.361 491.882 107.337 491.984 107.337H492.434C492.596 107.337 492.749 107.373 492.893 107.445C493.037 107.517 493.157 107.613 493.253 107.733C493.337 107.613 493.457 107.517 493.613 107.445C493.769 107.373 493.91 107.337 494.036 107.337H494.441C494.609 107.337 494.765 107.376 494.909 107.454C495.053 107.526 495.176 107.631 495.278 107.769C495.386 107.901 495.47 108.063 495.53 108.255C495.59 108.441 495.62 108.645 495.62 108.867V111.45H494.747ZM496.613 106.356V105.294H497.702V106.356H496.613ZM496.613 111.45V107.175H497.702V111.45H496.613ZM501.787 107.085V107.976H500.824V111.45H499.501V107.976H498.547V107.085H499.501V105.159H500.824V107.085H501.787Z" fill="black"/>
</svg>
